<svg width="1920" xmlns="http://www.w3.org/2000/svg" height="1080" id="screenshot-06564687-562d-803a-8007-720b441153ae" viewBox="0 0 1920 1080" xmlns:xlink="http://www.w3.org/1999/xlink" fill="none" version="1.1"><g id="shape-06564687-562d-803a-8007-720b441153ae"><defs><clipPath id="frame-clip-06564687-562d-803a-8007-720b441153ae-render-1" class="frame-clip frame-clip-def"><rect rx="0" ry="0" x="0" y="0" width="1920" height="1080" transform="matrix(1.000000, 0.000000, 0.000000, 1.000000, 0.000000, 0.000000)"/></clipPath></defs><g class="frame-container-wrapper"><g class="frame-container-blur"><g class="frame-container-shadows"><g clip-path="url(#frame-clip-06564687-562d-803a-8007-720b441153ae-render-1)" fill="none"><g class="fills" id="fills-06564687-562d-803a-8007-720b441153ae"><rect width="1920" height="1080" class="frame-background" x="0" transform="matrix(1.000000, 0.000000, 0.000000, 1.000000, 0.000000, 0.000000)" style="fill: rgb(255, 255, 255); fill-opacity: 1;" ry="0" rx="0" y="0"/></g><g class="frame-children"><g id="shape-8f3ae97a-d884-800a-8007-724a8dc4e80b" rx="0" ry="0"><g id="shape-8f3ae97a-d884-800a-8007-7243194abaf6" rx="0" ry="0"><g id="shape-06564687-562d-803a-8007-720ddd745eef"><g class="fills" id="fills-06564687-562d-803a-8007-720ddd745eef"><rect rx="0" ry="0" x="0" y="0" transform="matrix(1.000000, 0.000000, 0.000000, 1.000000, 0.000000, 0.000000)" width="1920" height="1084" style="fill: rgb(111, 31, 1); fill-opacity: 1;"/></g></g><g id="shape-06564687-562d-803a-8007-720e5ff5f306" style="opacity: 1; mix-blend-mode: overlay;"><defs><pattern patternUnits="userSpaceOnUse" x="-5" y="-24" width="1942" height="1108" patternTransform="matrix(1.000000, 0.000000, 0.000000, 1.000000, 0.000000, 0.000000)" id="fill-0-render-5"><g><image id="fill-image-render-5-0" href="http://localhost:6080/assets/by-file-media-id/6123a605-f677-80e2-8007-720e60d352ec" preserveAspectRatio="xMidYMid slice" width="1942" height="1108" opacity="1"/></g></pattern></defs><g class="fills" id="fills-06564687-562d-803a-8007-720e5ff5f306"><path d="M-5,-24L1937,-24L1937,1084L-3.98828125,1084L-5,-24" fill="url(#fill-0-render-5)"/></g></g><g id="shape-06564687-562d-803a-8007-720bbb28c0fa"><defs><filter id="filter-render-6" x="-0.02252252252252252" y="-0.03490575446294963" width="1.0527670527670527" height="1.0817791961703391" filterUnits="objectBoundingBox" color-interpolation-filters="sRGB"><feFlood flood-opacity="0" result="BackgroundImageFix"/><feColorMatrix in="SourceAlpha" type="matrix" values="0 0 0 0 0 0 0 0 0 0 0 0 0 0 0 0 0 0 127 0"/><feOffset dx="4" dy="4"/><feGaussianBlur stdDeviation="2"/><feColorMatrix type="matrix" values="0 0 0 0 0 0 0 0 0 0 0 0 0 0 0 0 0 0 0.2 0"/><feBlend mode="normal" in2="BackgroundImageFix" result="filter_06564687-562d-803a-8007-720c3a9f8437"/><feBlend mode="normal" in="SourceGraphic" in2="filter_06564687-562d-803a-8007-720c3a9f8437" result="shape"/><feGaussianBlur stdDeviation="4" result="filter_06564687-562d-803a-8007-720c3bed13c5"/></filter><filter id="filter-shadow-render-6" x="-0.017374517374517374" y="-0.026927296299989713" width="1.0424710424710424" height="1.0658222798444192" filterUnits="objectBoundingBox" color-interpolation-filters="sRGB"><feFlood flood-opacity="0" result="BackgroundImageFix"/><feColorMatrix in="SourceAlpha" type="matrix" values="0 0 0 0 0 0 0 0 0 0 0 0 0 0 0 0 0 0 127 0"/><feOffset dx="4" dy="4"/><feGaussianBlur stdDeviation="2"/><feColorMatrix type="matrix" values="0 0 0 0 0 0 0 0 0 0 0 0 0 0 0 0 0 0 0.2 0"/><feBlend mode="normal" in2="BackgroundImageFix" result="filter_06564687-562d-803a-8007-720c3a9f8437"/><feBlend mode="normal" in="SourceGraphic" in2="filter_06564687-562d-803a-8007-720c3a9f8437" result="shape"/></filter><filter id="filter-blur-render-6" x="-0.005148005148005148" y="-0.007978458162959915" width="1.0102960102960103" height="1.01595691632592" filterUnits="objectBoundingBox" color-interpolation-filters="sRGB"><feFlood flood-opacity="0" result="BackgroundImageFix"/><feBlend mode="normal" in="SourceGraphic" in2="BackgroundImageFix" result="shape"/><feGaussianBlur stdDeviation="4" result="filter_06564687-562d-803a-8007-720c3bed13c5"/></filter></defs><g class="fills" id="fills-06564687-562d-803a-8007-720bbb28c0fa"><rect width="1554" height="1002.7000000000116" x="184" transform="matrix(1.000000, 0.000000, 0.000000, 1.000000, 0.000000, 0.000000)" style="fill: rgb(0, 67, 15); fill-opacity: 1;" ry="0" rx="0" filter="url(#filter-render-6)" y="40.64999999999418"/></g><g id="strokes-447d00ad-5fd7-806f-8007-72bdfdb24e65-06564687-562d-803a-8007-720bbb28c0fa" class="strokes" filter="url(#filter-blur-render-6)"><g class="inner-stroke-shape" transform="matrix(1.000000, 0.000000, 0.000000, 1.000000, 0.000000, 0.000000)"><defs><clipPath id="inner-stroke-render-6-06564687-562d-803a-8007-720bbb28c0fa-0"><use href="#stroke-shape-render-6-06564687-562d-803a-8007-720bbb28c0fa-0"/></clipPath><rect rx="0" ry="0" x="184" y="40.64999999999418" width="1554" height="1002.7000000000116" id="stroke-shape-render-6-06564687-562d-803a-8007-720bbb28c0fa-0" style="fill: none; stroke-width: 2; stroke: rgb(0, 0, 0); stroke-opacity: 1;"/></defs><use href="#stroke-shape-render-6-06564687-562d-803a-8007-720bbb28c0fa-0" clip-path="url('#inner-stroke-render-6-06564687-562d-803a-8007-720bbb28c0fa-0')"/></g></g></g><g id="shape-06564687-562d-803a-8007-720d0e796294" style="opacity: 0.3; mix-blend-mode: soft-light;"><defs><pattern patternUnits="userSpaceOnUse" x="184" y="40.64999999999418" width="1554" height="1002.7000000000116" id="fill-0-render-7"><g><image id="fill-image-render-7-0" href="http://localhost:6080/assets/by-file-media-id/6123a605-f677-80e2-8007-720d0f56db9e" preserveAspectRatio="xMidYMid slice" width="1554" height="1002.7000000000116" opacity="1"/></g></pattern></defs><g class="fills" id="fills-06564687-562d-803a-8007-720d0e796294"><rect rx="0" ry="0" x="184" y="40.64999999999418" transform="matrix(1.000000, 0.000000, 0.000000, 1.000000, 0.000000, 0.000000)" width="1554" height="1002.7000000000116" fill="url(#fill-0-render-7)"/></g></g><g id="shape-cde45d12-765b-8001-8007-7220a64d58c3" filter="url(#filter-render-8)" rx="0" ry="0" style="opacity: 0.85;"><defs><filter id="filter-render-8" x="-0.18032786885245902" y="-0.22832103321034436" width="1.3442622950819672" height="1.435885608856112" filterUnits="objectBoundingBox" color-interpolation-filters="sRGB"><feFlood flood-opacity="0" result="BackgroundImageFix"/><feColorMatrix in="SourceAlpha" type="matrix" values="0 0 0 0 0 0 0 0 0 0 0 0 0 0 0 0 0 0 127 0"/><feMorphology radius="1" operator="dilate" in="SourceAlpha" result="filter_cde45d12-765b-8001-8007-7222c2b1e093"/><feOffset dx="-2" dy="-2"/><feGaussianBlur stdDeviation="0"/><feColorMatrix type="matrix" values="0 0 0 0 1 0 0 0 0 1 0 0 0 0 1 0 0 0 0.3 0"/><feBlend mode="normal" in2="BackgroundImageFix" result="filter_cde45d12-765b-8001-8007-7222c2b1e093"/><feBlend mode="normal" in="SourceGraphic" in2="filter_cde45d12-765b-8001-8007-7222c2b1e093" result="shape"/><feColorMatrix in="SourceAlpha" type="matrix" values="0 0 0 0 0 0 0 0 0 0 0 0 0 0 0 0 0 0 127 0" result="hardAlpha"/><feMorphology radius="4" operator="erode" in="SourceAlpha" result="filter_cde45d12-765b-8001-8007-722234055e2b"/><feOffset dx="3" dy="4"/><feGaussianBlur stdDeviation="0"/><feComposite in2="hardAlpha" operator="arithmetic" k2="-1" k3="1"/><feColorMatrix type="matrix" values="0 0 0 0 0 0 0 0 0 0 0 0 0 0 0 0 0 0 0.6 0"/><feBlend mode="normal" in2="shape" result="filter_cde45d12-765b-8001-8007-722234055e2b"/></filter><filter id="filter-shadow-render-8" x="-0.18032786885245902" y="-0.22832103321034436" width="1.3442622950819672" height="1.435885608856112" filterUnits="objectBoundingBox" color-interpolation-filters="sRGB"><feFlood flood-opacity="0" result="BackgroundImageFix"/><feColorMatrix in="SourceAlpha" type="matrix" values="0 0 0 0 0 0 0 0 0 0 0 0 0 0 0 0 0 0 127 0"/><feMorphology radius="1" operator="dilate" in="SourceAlpha" result="filter_cde45d12-765b-8001-8007-7222c2b1e093"/><feOffset dx="-2" dy="-2"/><feGaussianBlur stdDeviation="0"/><feColorMatrix type="matrix" values="0 0 0 0 1 0 0 0 0 1 0 0 0 0 1 0 0 0 0.3 0"/><feBlend mode="normal" in2="BackgroundImageFix" result="filter_cde45d12-765b-8001-8007-7222c2b1e093"/><feBlend mode="normal" in="SourceGraphic" in2="filter_cde45d12-765b-8001-8007-7222c2b1e093" result="shape"/><feColorMatrix in="SourceAlpha" type="matrix" values="0 0 0 0 0 0 0 0 0 0 0 0 0 0 0 0 0 0 127 0" result="hardAlpha"/><feMorphology radius="4" operator="erode" in="SourceAlpha" result="filter_cde45d12-765b-8001-8007-722234055e2b"/><feOffset dx="3" dy="4"/><feGaussianBlur stdDeviation="0"/><feComposite in2="hardAlpha" operator="arithmetic" k2="-1" k3="1"/><feColorMatrix type="matrix" values="0 0 0 0 0 0 0 0 0 0 0 0 0 0 0 0 0 0 0.6 0"/><feBlend mode="normal" in2="shape" result="filter_cde45d12-765b-8001-8007-722234055e2b"/></filter></defs><g id="shape-cde45d12-765b-8001-8007-721ffdb86221" rx="0" ry="0"><g id="shape-cde45d12-765b-8001-8007-721fc37522eb"><g class="fills" id="fills-cde45d12-765b-8001-8007-721fc37522eb"><path d="M1779.75390625,742L1781.955078125,743.453125L1769.384765625,806.265625L1767.181640625,804.8125Z" style="fill: rgb(151, 130, 96); fill-opacity: 1;"/></g></g><g id="shape-cde45d12-765b-8001-8007-721fc3755ad6"><g class="fills" id="fills-cde45d12-765b-8001-8007-721fc3755ad6"><path d="M1779.478515625,744.375L1797.65625,752.859375L1802.546875,766.9375L1791.6484375,772.96875L1776.359375,767.625L1778.240234375,765.3125L1797.775390625,766.109375L1794.3671875,757.5625L1779.076171875,752.234375Z" style="fill: rgb(151, 130, 96); fill-opacity: 1;"/></g></g><g id="shape-cde45d12-765b-8001-8007-721fc375830c"><g class="fills" id="fills-cde45d12-765b-8001-8007-721fc375830c"><path d="M1775.859375,770.4375L1797.8515625,779.59375L1799.90625,795.828125L1788.099609375,806.96875L1769.46875,801.03125L1771.353515625,798.734375L1791.208984375,803.28125L1795.587890625,792.40625L1792.62890625,781.328125L1776.3828125,775.8125Z" style="fill: rgb(151, 130, 96); fill-opacity: 1;"/></g></g></g><g id="shape-cde45d12-765b-8001-8007-722084c95233" rx="0" ry="0"><g id="shape-cde45d12-765b-8001-8007-721fc375c16c"><g class="fills" id="fills-cde45d12-765b-8001-8007-721fc375c16c"><path d="M1821.265625,755.609375L1824.369140625,758.40625L1798.978515625,819.5625L1796.330078125,816.921875Z" style="fill: rgb(151, 130, 96); fill-opacity: 1;"/></g></g><g id="shape-cde45d12-765b-8001-8007-721fc375c16d"><g class="fills" id="fills-cde45d12-765b-8001-8007-721fc375c16d"><path d="M1837.7578125,770.890625L1841.931640625,770.75L1820.9140625,834.046875L1816.740234375,834.1875Z" style="fill: rgb(151, 130, 96); fill-opacity: 1;"/></g></g><g id="shape-cde45d12-765b-8001-8007-721fc375c16e"><g class="fills" id="fills-cde45d12-765b-8001-8007-721fc375c16e"><path d="M1803.005859375,789.296875L1841.205078125,797.625L1841.044921875,800.90625L1802.84765625,792.5625Z" style="fill: rgb(151, 130, 96); fill-opacity: 1;"/></g></g></g><g id="shape-cde45d12-765b-8001-8007-72200e93c203" rx="0" ry="0"><g id="shape-cde45d12-765b-8001-8007-721fc3762384"><g class="fills" id="fills-cde45d12-765b-8001-8007-721fc3762384"><path d="M1860.251953125,759.703125L1864.25,759.359375L1846.994140625,820.828125L1843.837890625,819.203125Z" style="fill: rgb(151, 130, 96); fill-opacity: 1;"/></g></g><g id="shape-cde45d12-765b-8001-8007-721fc3762385"><g class="fills" id="fills-cde45d12-765b-8001-8007-721fc3762385"><path d="M1860.73828125,762.203125L1879.3203125,762.828125L1886.140625,779.890625L1871.046875,795.734375L1853.853515625,790.078125L1855.25390625,787.671875L1876.44921875,792.984375L1880.919921875,781.625L1876.029296875,767.53125L1861.537109375,766.046875Z" style="fill: rgb(151, 130, 96); fill-opacity: 1;"/></g></g></g></g></g><g id="shape-8f3ae97a-d884-800a-8007-724506655473" style="opacity: 0.2; mix-blend-mode: multiply;"><defs><filter id="filter-render-20" x="-0.056878355860025924" y="-0.04234173998741373" width="1.1137567117200518" height="1.0846834799748275" filterUnits="objectBoundingBox" color-interpolation-filters="sRGB"><feFlood flood-opacity="0" result="BackgroundImageFix"/><feBlend mode="normal" in="SourceGraphic" in2="BackgroundImageFix" result="shape"/><feGaussianBlur stdDeviation="5" result="filter_8f3ae97a-d884-800a-8007-7246cac1b80c"/></filter><filter id="filter-blur-render-20" x="-0.056878355860025924" y="-0.04234173998741373" width="1.1137567117200518" height="1.0846834799748275" filterUnits="objectBoundingBox" color-interpolation-filters="sRGB"><feFlood flood-opacity="0" result="BackgroundImageFix"/><feBlend mode="normal" in="SourceGraphic" in2="BackgroundImageFix" result="shape"/><feGaussianBlur stdDeviation="5" result="filter_8f3ae97a-d884-800a-8007-7246cac1b80c"/></filter></defs><g class="fills" id="fills-8f3ae97a-d884-800a-8007-724506655473"><path d="M1540.849609375,531.015625L1519.0390625,531.015625L1511.107421875,537L1505.158203125,548.9375L1505.158203125,554.90625L1503.17578125,560.875L1503.17578125,570.828125L1501.193359375,578.796875L1495.244140625,586.75L1485.330078125,596.703125L1475.416015625,596.703125L1469.466796875,598.6875L1465.5,600.6875L1463.517578125,604.671875L1449.638671875,616.609375L1443.689453125,624.5625L1439.72265625,628.53125L1439.72265625,630.53125L1435.7578125,634.515625L1431.791015625,646.46875L1429.80859375,650.4375L1429.80859375,684.28125L1425.84375,690.234375L1425.84375,700.1875L1427.826171875,704.171875L1431.791015625,708.15625L1435.7578125,708.15625L1437.740234375,714.125L1439.72265625,718.109375L1449.638671875,730.046875L1451.62109375,736.015625L1457.568359375,749.953125L1461.53515625,765.875L1461.53515625,769.859375L1467.484375,777.8125L1469.466796875,779.796875L1469.466796875,783.78125L1475.416015625,787.765625L1485.330078125,799.703125L1491.27734375,805.671875L1499.208984375,809.65625L1509.125,815.625L1538.8671875,819.609375L1564.64453125,819.609375L1568.609375,817.609375L1574.55859375,809.65625L1576.541015625,803.6875L1578.5234375,799.703125L1580.5078125,791.75L1580.5078125,763.875L1586.455078125,761.890625L1596.37109375,751.9375L1610.25,740L1620.1640625,728.0625L1624.130859375,724.078125L1624.130859375,720.09375L1628.095703125,712.125L1638.009765625,702.1875L1643.958984375,694.21875L1649.908203125,688.265625L1657.83984375,682.28125L1665.771484375,674.3125L1673.703125,668.34375L1677.66796875,662.375L1679.650390625,654.421875L1685.599609375,648.4375L1689.564453125,640.484375L1689.564453125,604.671875L1683.6171875,592.71875L1683.6171875,572.8125L1681.6328125,564.84375L1681.6328125,540.984375L1679.650390625,531.015625L1673.703125,525.046875L1671.71875,519.09375L1671.71875,503.15625L1669.736328125,491.21875L1667.75390625,483.25L1663.787109375,479.28125L1657.83984375,471.3125L1651.890625,469.328125L1649.908203125,465.34375L1641.9765625,465.34375L1630.080078125,471.3125L1622.1484375,477.296875L1614.216796875,485.25L1608.267578125,487.234375L1608.267578125,489.234375L1600.3359375,491.21875L1588.439453125,501.171875L1582.490234375,501.171875L1578.5234375,505.140625L1574.55859375,507.140625L1574.55859375,509.125L1568.609375,515.109375L1564.64453125,517.09375L1558.6953125,517.09375L1550.763671875,519.09375L1548.78125,521.078125L1544.81640625,521.078125L1542.83203125,525.046875L1540.849609375,527.03125L1538.8671875,527.03125L1528.953125,529.03125L1523.00390625,531.015625L1519.0390625,531.015625" filter="url(#filter-render-20)" style="fill: rgb(93, 64, 55); fill-opacity: 1;"/></g><g id="strokes-447d00ad-5fd7-806f-8007-72bdfdb80442-8f3ae97a-d884-800a-8007-724506655473" class="strokes" filter="url(#filter-blur-render-20)"><g class="stroke-shape"><path d="M1540.849609375,531.015625L1519.0390625,531.015625L1511.107421875,537L1505.158203125,548.9375L1505.158203125,554.90625L1503.17578125,560.875L1503.17578125,570.828125L1501.193359375,578.796875L1495.244140625,586.75L1485.330078125,596.703125L1475.416015625,596.703125L1469.466796875,598.6875L1465.5,600.6875L1463.517578125,604.671875L1449.638671875,616.609375L1443.689453125,624.5625L1439.72265625,628.53125L1439.72265625,630.53125L1435.7578125,634.515625L1431.791015625,646.46875L1429.80859375,650.4375L1429.80859375,684.28125L1425.84375,690.234375L1425.84375,700.1875L1427.826171875,704.171875L1431.791015625,708.15625L1435.7578125,708.15625L1437.740234375,714.125L1439.72265625,718.109375L1449.638671875,730.046875L1451.62109375,736.015625L1457.568359375,749.953125L1461.53515625,765.875L1461.53515625,769.859375L1467.484375,777.8125L1469.466796875,779.796875L1469.466796875,783.78125L1475.416015625,787.765625L1485.330078125,799.703125L1491.27734375,805.671875L1499.208984375,809.65625L1509.125,815.625L1538.8671875,819.609375L1564.64453125,819.609375L1568.609375,817.609375L1574.55859375,809.65625L1576.541015625,803.6875L1578.5234375,799.703125L1580.5078125,791.75L1580.5078125,763.875L1586.455078125,761.890625L1596.37109375,751.9375L1610.25,740L1620.1640625,728.0625L1624.130859375,724.078125L1624.130859375,720.09375L1628.095703125,712.125L1638.009765625,702.1875L1643.958984375,694.21875L1649.908203125,688.265625L1657.83984375,682.28125L1665.771484375,674.3125L1673.703125,668.34375L1677.66796875,662.375L1679.650390625,654.421875L1685.599609375,648.4375L1689.564453125,640.484375L1689.564453125,604.671875L1683.6171875,592.71875L1683.6171875,572.8125L1681.6328125,564.84375L1681.6328125,540.984375L1679.650390625,531.015625L1673.703125,525.046875L1671.71875,519.09375L1671.71875,503.15625L1669.736328125,491.21875L1667.75390625,483.25L1663.787109375,479.28125L1657.83984375,471.3125L1651.890625,469.328125L1649.908203125,465.34375L1641.9765625,465.34375L1630.080078125,471.3125L1622.1484375,477.296875L1614.216796875,485.25L1608.267578125,487.234375L1608.267578125,489.234375L1600.3359375,491.21875L1588.439453125,501.171875L1582.490234375,501.171875L1578.5234375,505.140625L1574.55859375,507.140625L1574.55859375,509.125L1568.609375,515.109375L1564.64453125,517.09375L1558.6953125,517.09375L1550.763671875,519.09375L1548.78125,521.078125L1544.81640625,521.078125L1542.83203125,525.046875L1540.849609375,527.03125L1538.8671875,527.03125L1528.953125,529.03125L1523.00390625,531.015625L1519.0390625,531.015625" style="fill: none; stroke-width: 2; stroke: rgb(0, 0, 0); stroke-opacity: 1;"/></g></g></g><g id="shape-8f3ae97a-d884-800a-8007-72450b79b251" style="opacity: 0.2; mix-blend-mode: multiply;"><defs><filter id="filter-render-21" x="-0.6876790830945558" y="-0.3768548323780559" width="2.3753581661891117" height="1.753709664756112" filterUnits="objectBoundingBox" color-interpolation-filters="sRGB"><feFlood flood-opacity="0" result="BackgroundImageFix"/><feBlend mode="normal" in="SourceGraphic" in2="BackgroundImageFix" result="shape"/><feGaussianBlur stdDeviation="5" result="filter_8f3ae97a-d884-800a-8007-7246d8e666c7"/></filter><filter id="filter-blur-render-21" x="-0.6876790830945558" y="-0.3768548323780559" width="2.3753581661891117" height="1.753709664756112" filterUnits="objectBoundingBox" color-interpolation-filters="sRGB"><feFlood flood-opacity="0" result="BackgroundImageFix"/><feBlend mode="normal" in="SourceGraphic" in2="BackgroundImageFix" result="shape"/><feGaussianBlur stdDeviation="5" result="filter_8f3ae97a-d884-800a-8007-7246d8e666c7"/></filter></defs><g class="fills" id="fills-8f3ae97a-d884-800a-8007-72450b79b251"><path d="M1453.603515625,529.03125L1453.603515625,525.046875L1451.62109375,525.046875L1449.638671875,527.03125L1443.689453125,531.015625L1441.70703125,537L1439.72265625,538.984375L1439.72265625,564.84375L1447.654296875,564.84375L1451.62109375,562.875L1457.568359375,560.875L1457.568359375,558.890625L1459.552734375,558.890625L1459.552734375,548.9375L1461.53515625,544.953125L1461.53515625,538.984375L1459.552734375,535L1455.5859375,535L1455.5859375,533.015625L1453.603515625,533.015625" filter="url(#filter-render-21)" style="fill: rgb(93, 64, 55); fill-opacity: 1;"/></g><g id="strokes-447d00ad-5fd7-806f-8007-72bdfdb90c80-8f3ae97a-d884-800a-8007-72450b79b251" class="strokes" filter="url(#filter-blur-render-21)"><g class="stroke-shape"><path d="M1453.603515625,529.03125L1453.603515625,525.046875L1451.62109375,525.046875L1449.638671875,527.03125L1443.689453125,531.015625L1441.70703125,537L1439.72265625,538.984375L1439.72265625,564.84375L1447.654296875,564.84375L1451.62109375,562.875L1457.568359375,560.875L1457.568359375,558.890625L1459.552734375,558.890625L1459.552734375,548.9375L1461.53515625,544.953125L1461.53515625,538.984375L1459.552734375,535L1455.5859375,535L1455.5859375,533.015625L1453.603515625,533.015625" style="fill: none; stroke-width: 2; stroke: rgb(0, 0, 0); stroke-opacity: 1;"/></g></g></g><g id="shape-8f3ae97a-d884-800a-8007-72450cf8de22" style="opacity: 0.2; mix-blend-mode: multiply;"><defs><filter id="filter-render-22" x="-0.6877406644577774" y="-0.7537096647566629" width="2.375481328915555" height="2.507419329513326" filterUnits="objectBoundingBox" color-interpolation-filters="sRGB"><feFlood flood-opacity="0" result="BackgroundImageFix"/><feBlend mode="normal" in="SourceGraphic" in2="BackgroundImageFix" result="shape"/><feGaussianBlur stdDeviation="5" result="filter_8f3ae97a-d884-800a-8007-7246de6987be"/></filter><filter id="filter-blur-render-22" x="-0.6877406644577774" y="-0.7537096647566629" width="2.375481328915555" height="2.507419329513326" filterUnits="objectBoundingBox" color-interpolation-filters="sRGB"><feFlood flood-opacity="0" result="BackgroundImageFix"/><feBlend mode="normal" in="SourceGraphic" in2="BackgroundImageFix" result="shape"/><feGaussianBlur stdDeviation="5" result="filter_8f3ae97a-d884-800a-8007-7246de6987be"/></filter></defs><g class="fills" id="fills-8f3ae97a-d884-800a-8007-72450cf8de22"><path d="M1554.73046875,451.421875L1554.73046875,449.421875L1556.712890625,449.421875L1556.712890625,445.4375L1554.73046875,445.4375L1544.81640625,455.40625L1544.81640625,461.375L1546.798828125,465.34375L1550.763671875,465.34375L1554.73046875,463.34375L1558.6953125,463.34375L1560.677734375,461.375L1564.64453125,459.375L1566.626953125,455.40625L1566.626953125,449.421875" filter="url(#filter-render-22)" style="fill: rgb(93, 64, 55); fill-opacity: 1;"/></g><g id="strokes-447d00ad-5fd7-806f-8007-72bdfdb9866a-8f3ae97a-d884-800a-8007-72450cf8de22" class="strokes" filter="url(#filter-blur-render-22)"><g class="stroke-shape"><path d="M1554.73046875,451.421875L1554.73046875,449.421875L1556.712890625,449.421875L1556.712890625,445.4375L1554.73046875,445.4375L1544.81640625,455.40625L1544.81640625,461.375L1546.798828125,465.34375L1550.763671875,465.34375L1554.73046875,463.34375L1558.6953125,463.34375L1560.677734375,461.375L1564.64453125,459.375L1566.626953125,455.40625L1566.626953125,449.421875" style="fill: none; stroke-width: 2; stroke: rgb(0, 0, 0); stroke-opacity: 1;"/></g></g></g><g id="shape-8f3ae97a-d884-800a-8007-7245d1ba9524" style="opacity: 0.2; mix-blend-mode: multiply;"><defs><filter id="filter-render-23" x="-0.04477611940298507" y="-0.06731824074997429" width="1.0895522388059702" height="1.1346364814999486" filterUnits="objectBoundingBox" color-interpolation-filters="sRGB"><feFlood flood-opacity="0" result="BackgroundImageFix"/><feBlend mode="normal" in="SourceGraphic" in2="BackgroundImageFix" result="shape"/><feGaussianBlur stdDeviation="5" result="filter_8f3ae97a-d884-800a-8007-7246b9c91d4a"/></filter><filter id="filter-blur-render-23" x="-0.04477611940298507" y="-0.06731824074997429" width="1.0895522388059702" height="1.1346364814999486" filterUnits="objectBoundingBox" color-interpolation-filters="sRGB"><feFlood flood-opacity="0" result="BackgroundImageFix"/><feBlend mode="normal" in="SourceGraphic" in2="BackgroundImageFix" result="shape"/><feGaussianBlur stdDeviation="5" result="filter_8f3ae97a-d884-800a-8007-7246b9c91d4a"/></filter></defs><g class="fills" id="fills-8f3ae97a-d884-800a-8007-7245d1ba9524"><path d="M182.19140625,39.15625L182.19140625,43.1875L181.736328125,46.8125L181.279296875,48.015625L181.279296875,116.921875L180.82421875,117.734375L180.82421875,122.5625L179.912109375,123.359375L179.912109375,126.59375L179.455078125,127.390625L179.455078125,129.8125L179,131.015625L179,145.53125L179.912109375,145.921875L179.912109375,149.140625L181.279296875,153.59375L181.279296875,162.84375L182.19140625,164.875L182.19140625,173.328125L182.646484375,174.140625L182.646484375,187.4375L183.103515625,189.046875L183.103515625,198.3125L182.19140625,199.921875L182.19140625,210L182.646484375,211.203125L184.470703125,213.609375L184.92578125,213.609375L186.748046875,215.234375L187.205078125,215.234375L188.115234375,216.046875L189.482421875,216.4375L190.396484375,217.25L191.763671875,217.25L194.041015625,220.0625L194.953125,221.671875L196.3203125,222.078125L196.775390625,223.296875L197.23046875,223.703125L198.59765625,224.5L199.51171875,224.5L200.87890625,225.703125L201.7890625,227.328125L203.15625,228.125L204.068359375,229.328125L206.34765625,229.734375L207.71484375,230.53125L210.44921875,230.53125L212.728515625,231.75L214.095703125,231.75L219.109375,235.390625L221.84375,236.1875L224.123046875,237.390625L225.490234375,237.796875L230.958984375,237.796875L233.23828125,238.59375L237.794921875,241.421875L239.619140625,241.828125L243.720703125,243.421875L248.736328125,243.421875L254.205078125,244.25L256.02734375,244.65625L257.39453125,245.453125L261.041015625,245.859375L262.865234375,246.65625L264.6875,246.65625L278.361328125,250.6875L280.640625,252.3125L281.55078125,252.3125L281.55078125,254.71875L283.375,257.9375L286.109375,259.5625L286.109375,259.953125L300.693359375,259.953125L302.97265625,259.5625L319.380859375,259.5625L322.115234375,259.140625L332.59765625,255.515625L337.61328125,254.328125L345.359375,249.484375L351.28515625,248.28125L351.7421875,245.453125L354.01953125,236.984375L354.4765625,236.1875L354.4765625,235.390625L356.755859375,231.359375L362.224609375,224.90625L363.591796875,221.28125L366.783203125,214.828125L366.783203125,212.015625L367.23828125,210.40625L368.150390625,208.78125L371.794921875,204.359375L374.529296875,201.9375L385.013671875,195.890625L387.29296875,195.890625L387.748046875,195.09375L392.76171875,193.890625L396.408203125,192.265625L401.876953125,189.046875L404.15625,188.234375L405.5234375,187.03125L410.537109375,185.828125L415.095703125,183L420.564453125,178.96875L422.84375,176.15625L424.66796875,172.9375L428.3125,169.703125L429.224609375,168.5L431.046875,168.09375L436.517578125,164.0625L437.427734375,164.0625L438.794921875,162.84375L440.162109375,162.84375L441.07421875,162.046875L443.353515625,161.640625L445.6328125,160.4375L447,160.046875L454.748046875,160.046875L460.673828125,159.640625L471.611328125,155.609375L472.978515625,155.609375L480.7265625,151.578125L492.12109375,125.78125L492.12109375,120.53125L501.45703125,112.21875L504.8203125,102.703125L509.52734375,96.171875L508.181640625,89.03125L512.6328125,61.3125L514,59.296875L513.544921875,51.640625L511.263671875,48.015625L509.896484375,47.21875L508.986328125,46.015625L506.70703125,44.8125L505.794921875,43.984375L505.33984375,43.984375L504.427734375,43.1875L501.236328125,42.78125L501.236328125,41.984375L499.869140625,41.984375L487.109375,37.953125L485.28515625,37.953125L483.91796875,37.546875L432.869140625,37.546875L431.501953125,37.953125L413.271484375,37.953125L409.625,37.546875L370.884765625,37.546875L366.326171875,37.953125L361.76953125,37.953125L348.095703125,39.15625L342.767578125,39.09375L338.060546875,39.09375L336.04296875,38.5L332.681640625,38.5L322.595703125,39.6875L307.802734375,39.6875L274.181640625,39.6875L261.404296875,39.6875L249.974609375,39.09375L245.267578125,39.09375L239.21484375,39.09375L233.8359375,39.09375L221.84375,37.953125L211.361328125,37.140625L185.380859375,37.140625L183.55859375,37.953125L181.736328125,37.953125" filter="url(#filter-render-23)" style="fill: rgb(93, 64, 55); fill-opacity: 1;"/></g><g id="strokes-447d00ad-5fd7-806f-8007-72bdfdbafacf-8f3ae97a-d884-800a-8007-7245d1ba9524" class="strokes" filter="url(#filter-blur-render-23)"><g class="stroke-shape"><path d="M182.19140625,39.15625L182.19140625,43.1875L181.736328125,46.8125L181.279296875,48.015625L181.279296875,116.921875L180.82421875,117.734375L180.82421875,122.5625L179.912109375,123.359375L179.912109375,126.59375L179.455078125,127.390625L179.455078125,129.8125L179,131.015625L179,145.53125L179.912109375,145.921875L179.912109375,149.140625L181.279296875,153.59375L181.279296875,162.84375L182.19140625,164.875L182.19140625,173.328125L182.646484375,174.140625L182.646484375,187.4375L183.103515625,189.046875L183.103515625,198.3125L182.19140625,199.921875L182.19140625,210L182.646484375,211.203125L184.470703125,213.609375L184.92578125,213.609375L186.748046875,215.234375L187.205078125,215.234375L188.115234375,216.046875L189.482421875,216.4375L190.396484375,217.25L191.763671875,217.25L194.041015625,220.0625L194.953125,221.671875L196.3203125,222.078125L196.775390625,223.296875L197.23046875,223.703125L198.59765625,224.5L199.51171875,224.5L200.87890625,225.703125L201.7890625,227.328125L203.15625,228.125L204.068359375,229.328125L206.34765625,229.734375L207.71484375,230.53125L210.44921875,230.53125L212.728515625,231.75L214.095703125,231.75L219.109375,235.390625L221.84375,236.1875L224.123046875,237.390625L225.490234375,237.796875L230.958984375,237.796875L233.23828125,238.59375L237.794921875,241.421875L239.619140625,241.828125L243.720703125,243.421875L248.736328125,243.421875L254.205078125,244.25L256.02734375,244.65625L257.39453125,245.453125L261.041015625,245.859375L262.865234375,246.65625L264.6875,246.65625L278.361328125,250.6875L280.640625,252.3125L281.55078125,252.3125L281.55078125,254.71875L283.375,257.9375L286.109375,259.5625L286.109375,259.953125L300.693359375,259.953125L302.97265625,259.5625L319.380859375,259.5625L322.115234375,259.140625L332.59765625,255.515625L337.61328125,254.328125L345.359375,249.484375L351.28515625,248.28125L351.7421875,245.453125L354.01953125,236.984375L354.4765625,236.1875L354.4765625,235.390625L356.755859375,231.359375L362.224609375,224.90625L363.591796875,221.28125L366.783203125,214.828125L366.783203125,212.015625L367.23828125,210.40625L368.150390625,208.78125L371.794921875,204.359375L374.529296875,201.9375L385.013671875,195.890625L387.29296875,195.890625L387.748046875,195.09375L392.76171875,193.890625L396.408203125,192.265625L401.876953125,189.046875L404.15625,188.234375L405.5234375,187.03125L410.537109375,185.828125L415.095703125,183L420.564453125,178.96875L422.84375,176.15625L424.66796875,172.9375L428.3125,169.703125L429.224609375,168.5L431.046875,168.09375L436.517578125,164.0625L437.427734375,164.0625L438.794921875,162.84375L440.162109375,162.84375L441.07421875,162.046875L443.353515625,161.640625L445.6328125,160.4375L447,160.046875L454.748046875,160.046875L460.673828125,159.640625L471.611328125,155.609375L472.978515625,155.609375L480.7265625,151.578125L492.12109375,125.78125L492.12109375,120.53125L501.45703125,112.21875L504.8203125,102.703125L509.52734375,96.171875L508.181640625,89.03125L512.6328125,61.3125L514,59.296875L513.544921875,51.640625L511.263671875,48.015625L509.896484375,47.21875L508.986328125,46.015625L506.70703125,44.8125L505.794921875,43.984375L505.33984375,43.984375L504.427734375,43.1875L501.236328125,42.78125L501.236328125,41.984375L499.869140625,41.984375L487.109375,37.953125L485.28515625,37.953125L483.91796875,37.546875L432.869140625,37.546875L431.501953125,37.953125L413.271484375,37.953125L409.625,37.546875L370.884765625,37.546875L366.326171875,37.953125L361.76953125,37.953125L348.095703125,39.15625L342.767578125,39.09375L338.060546875,39.09375L336.04296875,38.5L332.681640625,38.5L322.595703125,39.6875L307.802734375,39.6875L274.181640625,39.6875L261.404296875,39.6875L249.974609375,39.09375L245.267578125,39.09375L239.21484375,39.09375L233.8359375,39.09375L221.84375,37.953125L211.361328125,37.140625L185.380859375,37.140625L183.55859375,37.953125L181.736328125,37.953125" style="fill: none; stroke-width: 2; stroke: rgb(0, 0, 0); stroke-opacity: 1;"/></g></g></g><g id="shape-8f3ae97a-d884-800a-8007-724739fe6e66"><g class="fills" id="fills-8f3ae97a-d884-800a-8007-724739fe6e66"><path d="M98.736328125,521.90625L91.828125,527.203125L90.72265625,528.859375L89.892578125,533.84375L84.642578125,550.484375L81.87890625,555.75L79.66796875,558.8125L76.3515625,568.234375L73.310546875,572.953125L66.40234375,581L62.533203125,584.046875L56.728515625,590.421875L50.6484375,595.4375L48.990234375,597.640625L47.884765625,598.203125L44.291015625,602.078125L41.52734375,606.234375L39.31640625,611.234375L33.513671875,618.71875"/></g><g id="strokes-447d00ad-5fd7-806f-8007-72bdfdbbef0c-8f3ae97a-d884-800a-8007-724739fe6e66" class="strokes"><g class="stroke-shape"><path d="M98.736328125,521.90625L91.828125,527.203125L90.72265625,528.859375L89.892578125,533.84375L84.642578125,550.484375L81.87890625,555.75L79.66796875,558.8125L76.3515625,568.234375L73.310546875,572.953125L66.40234375,581L62.533203125,584.046875L56.728515625,590.421875L50.6484375,595.4375L48.990234375,597.640625L47.884765625,598.203125L44.291015625,602.078125L41.52734375,606.234375L39.31640625,611.234375L33.513671875,618.71875" style="fill: none; stroke-width: 2; stroke: rgb(71, 41, 25); stroke-opacity: 0.6;"/></g></g></g><g id="shape-8f3ae97a-d884-800a-8007-72474b37742c"><g class="fills" id="fills-8f3ae97a-d884-800a-8007-72474b37742c"><path d="M100.064453125,596.140625L98.07421875,603.125L95.08984375,618.109375L93.1015625,637.078125L88.126953125,673.03125L81.162109375,701.984375L76.189453125,713.96875L75.193359375,718.96875L71.21484375,731.9375L71.21484375,734.9375"/></g><g id="strokes-447d00ad-5fd7-806f-8007-72bdfdbc481a-8f3ae97a-d884-800a-8007-72474b37742c" class="strokes"><g class="stroke-shape"><path d="M100.064453125,596.140625L98.07421875,603.125L95.08984375,618.109375L93.1015625,637.078125L88.126953125,673.03125L81.162109375,701.984375L76.189453125,713.96875L75.193359375,718.96875L71.21484375,731.9375L71.21484375,734.9375" style="fill: none; stroke-width: 2; stroke: rgb(71, 41, 25); stroke-opacity: 0.7;"/></g></g></g><g id="shape-8f3ae97a-d884-800a-8007-7247508524da"><g class="fills" id="fills-8f3ae97a-d884-800a-8007-7247508524da"><path d="M165.71875,19L162.734375,20.015625L160.744140625,25L156.765625,32L152.78515625,43.96875L151.791015625,51.953125L150.796875,66.9375L150.796875,96.890625L147.8125,108.875L141.841796875,120.859375L135.873046875,130.84375L125.92578125,150.8125L121.947265625,154.8125L117.966796875,156.796875L111.998046875,161.796875L108.01953125,166.78125L107.025390625,169.78125L108.01953125,173.78125"/></g><g id="strokes-447d00ad-5fd7-806f-8007-72bdfdbc8e50-8f3ae97a-d884-800a-8007-7247508524da" class="strokes"><g class="stroke-shape"><path d="M165.71875,19L162.734375,20.015625L160.744140625,25L156.765625,32L152.78515625,43.96875L151.791015625,51.953125L150.796875,66.9375L150.796875,96.890625L147.8125,108.875L141.841796875,120.859375L135.873046875,130.84375L125.92578125,150.8125L121.947265625,154.8125L117.966796875,156.796875L111.998046875,161.796875L108.01953125,166.78125L107.025390625,169.78125L108.01953125,173.78125" style="fill: none; stroke-width: 2; stroke: rgb(71, 41, 25); stroke-opacity: 0.7;"/></g></g></g><g id="shape-8f3ae97a-d884-800a-8007-724752f440ad" style="opacity: 0.6;"><g class="fills" id="fills-8f3ae97a-d884-800a-8007-724752f440ad"><path d="M1791.244140625,45.96875L1791.244140625,48.96875L1803.181640625,77.921875L1835.015625,133.84375L1848.94140625,154.8125L1854.912109375,162.796875L1859.884765625,172.78125L1860.880859375,178.765625L1863.865234375,185.765625L1865.853515625,200.734375L1867.84375,209.734375L1869.833984375,215.71875L1870.828125,224.703125L1872.818359375,232.6875L1872.818359375,242.671875L1871.822265625,249.671875"/></g><g id="strokes-447d00ad-5fd7-806f-8007-72bdfdbcce05-8f3ae97a-d884-800a-8007-724752f440ad" class="strokes"><g class="stroke-shape"><path d="M1791.244140625,45.96875L1791.244140625,48.96875L1803.181640625,77.921875L1835.015625,133.84375L1848.94140625,154.8125L1854.912109375,162.796875L1859.884765625,172.78125L1860.880859375,178.765625L1863.865234375,185.765625L1865.853515625,200.734375L1867.84375,209.734375L1869.833984375,215.71875L1870.828125,224.703125L1872.818359375,232.6875L1872.818359375,242.671875L1871.822265625,249.671875" style="fill: none; stroke-width: 2; stroke: rgb(71, 41, 25); stroke-opacity: 1;"/></g></g></g><g id="shape-8f3ae97a-d884-800a-8007-724754b4dedb"><g class="fills" id="fills-8f3ae97a-d884-800a-8007-724754b4dedb"><path d="M1873.8125,457.34375L1873.8125,460.34375L1870.828125,475.3125L1864.859375,492.296875L1855.90625,509.265625L1837.00390625,540.234375L1829.044921875,554.203125L1814.123046875,575.171875L1806.1640625,587.15625L1802.185546875,594.140625L1786.26953125,623.09375L1780.30078125,640.078125L1776.3203125,649.0625"/></g><g id="strokes-447d00ad-5fd7-806f-8007-72bdfdbd56da-8f3ae97a-d884-800a-8007-724754b4dedb" class="strokes"><g class="stroke-shape"><path d="M1873.8125,457.34375L1873.8125,460.34375L1870.828125,475.3125L1864.859375,492.296875L1855.90625,509.265625L1837.00390625,540.234375L1829.044921875,554.203125L1814.123046875,575.171875L1806.1640625,587.15625L1802.185546875,594.140625L1786.26953125,623.09375L1780.30078125,640.078125L1776.3203125,649.0625" style="fill: none; stroke-width: 2; stroke: rgb(71, 41, 25); stroke-opacity: 0.6;"/></g></g></g><g id="shape-8f3ae97a-d884-800a-8007-7248bdfc8ebe"><defs><radialGradient id="fill-color-gradient-render-29-0" cx="0.50075909175988" cy="0.469897409514966" r="0.5301031339836085" gradientTransform="matrix(-0.999999, -0.001432, 0.001432, -0.999999, 1.000845, 0.940511)"><stop offset="0.4" stop-color="#000000" stop-opacity="0"/><stop offset="0.8" stop-color="#000000" stop-opacity="1"/></radialGradient><pattern patternUnits="userSpaceOnUse" x="0" y="0" width="1922" height="1084" id="fill-0-render-29"><g><rect width="1922" height="1084" style="fill: url(&quot;#fill-color-gradient-render-29-0&quot;); fill-opacity: 0.3;"/></g></pattern></defs><g class="fills" id="fills-8f3ae97a-d884-800a-8007-7248bdfc8ebe"><rect rx="0" ry="0" x="0" y="0" transform="matrix(1.000000, 0.000000, 0.000000, 1.000000, 0.000000, 0.000000)" width="1922" height="1084" fill="url(#fill-0-render-29)"/></g></g></g></g></g></g></g></g></g></svg>